<svg width="421" height="38" viewBox="0 0 421 38" fill="none" xmlns="http://www.w3.org/2000/svg">
<path d="M14.6477 10.8182V14.9091H0.346558V10.8182H14.6477ZM4.18178 4.54545H9.27838V29.3125C9.27838 30.3011 9.4261 31.0454 9.72156 31.5455C10.017 32.0341 10.3977 32.3693 10.8636 32.5511C11.3409 32.7216 11.8579 32.8068 12.4147 32.8068C12.8238 32.8068 13.1818 32.7784 13.4886 32.7216C13.7954 32.6648 14.0341 32.6193 14.2045 32.5852L15.125 36.7954C14.8295 36.9091 14.4091 37.0227 13.8636 37.1364C13.3181 37.2614 12.6363 37.3295 11.8181 37.3409C10.4772 37.3636 9.22724 37.125 8.06815 36.625C6.90906 36.125 5.97156 35.3523 5.25565 34.3068C4.53974 33.2614 4.18178 31.9489 4.18178 30.3693V4.54545Z" fill="white"/>
<path d="M25.9446 21.4545V37H20.848V2.0909H25.8764V15.0795H26.2003C26.8139 13.6704 27.7514 12.5511 29.0128 11.7216C30.2741 10.892 31.9218 10.4773 33.9559 10.4773C35.7514 10.4773 37.3196 10.8466 38.6605 11.5852C40.0127 12.3239 41.0582 13.4261 41.7968 14.892C42.5468 16.3466 42.9218 18.1648 42.9218 20.3466V37H37.8253V20.9602C37.8253 19.0398 37.3309 17.5511 36.3423 16.4943C35.3537 15.4261 33.9787 14.892 32.2173 14.892C31.0128 14.892 29.9332 15.1477 28.9787 15.6591C28.0355 16.1704 27.2912 16.9204 26.7457 17.9091C26.2116 18.8864 25.9446 20.0682 25.9446 21.4545Z" fill="white"/>
<path d="M61.0071 37.5284C58.4275 37.5284 56.2059 36.9773 54.3423 35.875C52.49 34.7614 51.0582 33.1989 50.0468 31.1875C49.0468 29.1648 48.5468 26.7954 48.5468 24.0795C48.5468 21.3977 49.0468 19.0341 50.0468 16.9886C51.0582 14.9432 52.4673 13.3466 54.2741 12.1989C56.0923 11.0511 58.2173 10.4773 60.6491 10.4773C62.1264 10.4773 63.5582 10.7216 64.9446 11.2102C66.3309 11.6989 67.5752 12.4659 68.6775 13.5114C69.7798 14.5568 70.6491 15.9148 71.2855 17.5852C71.9218 19.2443 72.24 21.2614 72.24 23.6364V25.4432H51.4275V21.625H67.2457C67.2457 20.2841 66.973 19.0966 66.4275 18.0625C65.8821 17.017 65.115 16.1932 64.1264 15.5909C63.1491 14.9886 62.0014 14.6875 60.6832 14.6875C59.2514 14.6875 58.0014 15.0398 56.9332 15.7443C55.8764 16.4375 55.0582 17.3466 54.4787 18.4716C53.9105 19.5852 53.6264 20.7954 53.6264 22.1023V25.0852C53.6264 26.8352 53.9332 28.3239 54.5468 29.5511C55.1718 30.7784 56.0412 31.7159 57.1548 32.3636C58.2684 33 59.5696 33.3182 61.0582 33.3182C62.0241 33.3182 62.9048 33.1818 63.7003 32.9091C64.4957 32.625 65.1832 32.2045 65.7627 31.6477C66.3423 31.0909 66.7855 30.4034 67.0923 29.5852L71.9162 30.4545C71.5298 31.875 70.8366 33.1193 69.8366 34.1875C68.848 35.2443 67.6037 36.0682 66.1037 36.6591C64.615 37.2386 62.9162 37.5284 61.0071 37.5284Z" fill="white"/>
<path d="M110.217 17.2102L105.598 18.0284C105.405 17.4375 105.098 16.875 104.678 16.3409C104.268 15.8068 103.712 15.3693 103.007 15.0284C102.303 14.6875 101.422 14.517 100.365 14.517C98.9218 14.517 97.7173 14.8409 96.7514 15.4886C95.7855 16.125 95.3025 16.9489 95.3025 17.9602C95.3025 18.8352 95.6264 19.5398 96.2741 20.0739C96.9218 20.6079 97.9673 21.0454 99.4105 21.3864L103.57 22.3409C105.979 22.8977 107.774 23.7557 108.956 24.9148C110.138 26.0739 110.729 27.5795 110.729 29.4318C110.729 31 110.274 32.3977 109.365 33.625C108.467 34.8409 107.212 35.7955 105.598 36.4886C103.996 37.1818 102.138 37.5284 100.024 37.5284C97.0923 37.5284 94.7002 36.9034 92.848 35.6534C90.9957 34.392 89.8593 32.6023 89.4389 30.2841L94.365 29.5341C94.6718 30.8182 95.3025 31.7898 96.2571 32.4489C97.2116 33.0966 98.4559 33.4204 99.99 33.4204C101.66 33.4204 102.996 33.0739 103.996 32.3807C104.996 31.6761 105.496 30.8182 105.496 29.8068C105.496 28.9886 105.189 28.3011 104.575 27.7443C103.973 27.1875 103.047 26.767 101.797 26.4829L97.365 25.5114C94.9218 24.9545 93.115 24.0682 91.9446 22.8523C90.7855 21.6364 90.2059 20.0966 90.2059 18.2329C90.2059 16.6875 90.6378 15.3352 91.5014 14.1761C92.365 13.017 93.5582 12.1136 95.0809 11.4659C96.6037 10.8068 98.348 10.4773 100.314 10.4773C103.143 10.4773 105.371 11.0909 106.996 12.3182C108.621 13.5341 109.695 15.1648 110.217 17.2102Z" fill="white"/>
<path d="M127.361 37.5284C124.906 37.5284 122.764 36.9659 120.935 35.8409C119.105 34.7159 117.685 33.142 116.673 31.1193C115.662 29.0966 115.156 26.733 115.156 24.0284C115.156 21.3125 115.662 18.9375 116.673 16.9034C117.685 14.8693 119.105 13.2898 120.935 12.1648C122.764 11.0398 124.906 10.4773 127.361 10.4773C129.815 10.4773 131.957 11.0398 133.787 12.1648C135.616 13.2898 137.037 14.8693 138.048 16.9034C139.06 18.9375 139.565 21.3125 139.565 24.0284C139.565 26.733 139.06 29.0966 138.048 31.1193C137.037 33.142 135.616 34.7159 133.787 35.8409C131.957 36.9659 129.815 37.5284 127.361 37.5284ZM127.378 33.25C128.969 33.25 130.287 32.8295 131.332 31.9886C132.378 31.1477 133.151 30.0284 133.651 28.6307C134.162 27.2329 134.418 25.6932 134.418 24.0114C134.418 22.3409 134.162 20.8068 133.651 19.4091C133.151 18 132.378 16.8693 131.332 16.017C130.287 15.1648 128.969 14.7386 127.378 14.7386C125.776 14.7386 124.446 15.1648 123.389 16.017C122.344 16.8693 121.565 18 121.054 19.4091C120.554 20.8068 120.304 22.3409 120.304 24.0114C120.304 25.6932 120.554 27.2329 121.054 28.6307C121.565 30.0284 122.344 31.1477 123.389 31.9886C124.446 32.8295 125.776 33.25 127.378 33.25Z" fill="white"/>
<path d="M156.283 37.5284C153.749 37.5284 151.567 36.9545 149.737 35.8068C147.919 34.6477 146.521 33.0511 145.544 31.017C144.567 28.9829 144.078 26.6534 144.078 24.0284C144.078 21.3693 144.578 19.0227 145.578 16.9886C146.578 14.9432 147.987 13.3466 149.805 12.1989C151.624 11.0511 153.766 10.4773 156.232 10.4773C158.22 10.4773 159.993 10.8466 161.55 11.5852C163.107 12.3125 164.362 13.3352 165.317 14.6534C166.283 15.9716 166.856 17.5114 167.038 19.2727H162.078C161.805 18.0454 161.18 16.9886 160.203 16.1023C159.237 15.2159 157.942 14.7727 156.317 14.7727C154.896 14.7727 153.652 15.1477 152.584 15.8977C151.527 16.6364 150.703 17.6932 150.112 19.0682C149.521 20.4318 149.226 22.0455 149.226 23.9091C149.226 25.8182 149.516 27.4659 150.095 28.8523C150.675 30.2386 151.493 31.3125 152.55 32.0739C153.618 32.8352 154.874 33.2159 156.317 33.2159C157.283 33.2159 158.158 33.0398 158.942 32.6875C159.737 32.3239 160.402 31.8068 160.936 31.1364C161.482 30.4659 161.862 29.6591 162.078 28.7159H167.038C166.856 30.4091 166.305 31.9205 165.385 33.25C164.464 34.5795 163.232 35.625 161.686 36.3864C160.152 37.1477 158.351 37.5284 156.283 37.5284Z" fill="white"/>
<path d="M172.489 37V10.8182H177.585V37H172.489ZM175.062 6.7784C174.176 6.7784 173.415 6.48295 172.778 5.89204C172.153 5.28977 171.841 4.57386 171.841 3.74431C171.841 2.9034 172.153 2.18749 172.778 1.59658C173.415 0.994312 174.176 0.693176 175.062 0.693176C175.949 0.693176 176.705 0.994312 177.33 1.59658C177.966 2.18749 178.284 2.9034 178.284 3.74431C178.284 4.57386 177.966 5.28977 177.33 5.89204C176.705 6.48295 175.949 6.7784 175.062 6.7784Z" fill="white"/>
<path d="M192.061 37.5795C190.402 37.5795 188.902 37.2727 187.561 36.6591C186.22 36.0341 185.158 35.1307 184.374 33.9489C183.601 32.767 183.214 31.3182 183.214 29.6023C183.214 28.125 183.499 26.9091 184.067 25.9545C184.635 25 185.402 24.2443 186.368 23.6875C187.334 23.1307 188.413 22.7102 189.607 22.4261C190.8 22.142 192.016 21.9261 193.254 21.7784C194.822 21.5966 196.095 21.4489 197.072 21.3352C198.05 21.2102 198.76 21.0114 199.203 20.7386C199.646 20.4659 199.868 20.0227 199.868 19.4091V19.2898C199.868 17.8011 199.447 16.6477 198.607 15.8295C197.777 15.0114 196.538 14.6023 194.891 14.6023C193.175 14.6023 191.822 14.9829 190.834 15.7443C189.856 16.4943 189.18 17.3295 188.805 18.25L184.016 17.1591C184.584 15.5682 185.413 14.2841 186.504 13.3068C187.606 12.3182 188.874 11.6023 190.305 11.1591C191.737 10.7045 193.243 10.4773 194.822 10.4773C195.868 10.4773 196.976 10.6023 198.146 10.8523C199.328 11.0909 200.43 11.5341 201.453 12.1818C202.487 12.8295 203.334 13.7557 203.993 14.9602C204.652 16.1534 204.982 17.7045 204.982 19.6136V37H200.004V33.4204H199.8C199.47 34.0795 198.976 34.7273 198.317 35.3636C197.658 36 196.811 36.5284 195.777 36.9489C194.743 37.3693 193.504 37.5795 192.061 37.5795ZM193.169 33.4886C194.578 33.4886 195.783 33.2102 196.783 32.6534C197.794 32.0966 198.561 31.3693 199.084 30.4716C199.618 29.5625 199.885 28.5909 199.885 27.5568V24.1818C199.703 24.3636 199.351 24.5341 198.828 24.6932C198.317 24.8409 197.732 24.9716 197.072 25.0852C196.413 25.1875 195.771 25.2841 195.146 25.375C194.521 25.4545 193.999 25.5227 193.578 25.5795C192.589 25.7045 191.686 25.9148 190.868 26.2102C190.061 26.5057 189.413 26.9318 188.925 27.4886C188.447 28.0341 188.209 28.7614 188.209 29.6704C188.209 30.9318 188.675 31.8864 189.607 32.5341C190.538 33.1704 191.726 33.4886 193.169 33.4886Z" fill="white"/>
<path d="M216.866 2.0909V37H211.77V2.0909H216.866Z" fill="white"/>
<path d="M241.523 21.4545V37H236.426V10.8182H241.318V15.0795H241.642C242.244 13.6932 243.187 12.5795 244.472 11.7386C245.767 10.8977 247.398 10.4773 249.364 10.4773C251.148 10.4773 252.71 10.8523 254.051 11.6023C255.392 12.3409 256.432 13.4432 257.17 14.9091C257.909 16.375 258.278 18.1875 258.278 20.3466V37H253.182V20.9602C253.182 19.0625 252.687 17.5795 251.699 16.5114C250.71 15.4318 249.352 14.892 247.625 14.892C246.443 14.892 245.392 15.1477 244.472 15.6591C243.562 16.1704 242.841 16.9204 242.307 17.9091C241.784 18.8864 241.523 20.0682 241.523 21.4545Z" fill="white"/>
<path d="M276.398 37.5284C273.818 37.5284 271.597 36.9773 269.733 35.875C267.881 34.7614 266.449 33.1989 265.437 31.1875C264.437 29.1648 263.937 26.7954 263.937 24.0795C263.937 21.3977 264.437 19.0341 265.437 16.9886C266.449 14.9432 267.858 13.3466 269.665 12.1989C271.483 11.0511 273.608 10.4773 276.04 10.4773C277.517 10.4773 278.949 10.7216 280.335 11.2102C281.722 11.6989 282.966 12.4659 284.068 13.5114C285.17 14.5568 286.04 15.9148 286.676 17.5852C287.312 19.2443 287.631 21.2614 287.631 23.6364V25.4432H266.818V21.625H282.636C282.636 20.2841 282.364 19.0966 281.818 18.0625C281.273 17.017 280.506 16.1932 279.517 15.5909C278.54 14.9886 277.392 14.6875 276.074 14.6875C274.642 14.6875 273.392 15.0398 272.324 15.7443C271.267 16.4375 270.449 17.3466 269.869 18.4716C269.301 19.5852 269.017 20.7954 269.017 22.1023V25.0852C269.017 26.8352 269.324 28.3239 269.937 29.5511C270.562 30.7784 271.432 31.7159 272.545 32.3636C273.659 33 274.96 33.3182 276.449 33.3182C277.415 33.3182 278.295 33.1818 279.091 32.9091C279.886 32.625 280.574 32.2045 281.153 31.6477C281.733 31.0909 282.176 30.4034 282.483 29.5852L287.307 30.4545C286.92 31.875 286.227 33.1193 285.227 34.1875C284.239 35.2443 282.994 36.0682 281.494 36.6591C280.006 37.2386 278.307 37.5284 276.398 37.5284Z" fill="white"/>
<path d="M305.507 10.8182V14.9091H291.206V10.8182H305.507ZM295.041 4.54545H300.138V29.3125C300.138 30.3011 300.285 31.0454 300.581 31.5455C300.876 32.0341 301.257 32.3693 301.723 32.5511C302.2 32.7216 302.717 32.8068 303.274 32.8068C303.683 32.8068 304.041 32.7784 304.348 32.7216C304.655 32.6648 304.893 32.6193 305.064 32.5852L305.984 36.7954C305.689 36.9091 305.268 37.0227 304.723 37.1364C304.178 37.2614 303.496 37.3295 302.678 37.3409C301.337 37.3636 300.087 37.125 298.928 36.625C297.768 36.125 296.831 35.3523 296.115 34.3068C295.399 33.2614 295.041 31.9489 295.041 30.3693V4.54545Z" fill="white"/>
<path d="M316.821 37L309.116 10.8182H314.383L319.514 30.0454H319.77L324.918 10.8182H330.185L335.298 29.9602H335.554L340.651 10.8182H345.918L338.23 37H333.031L327.713 18.0966H327.321L322.003 37H316.821Z" fill="white"/>
<path d="M360.986 37.5284C358.531 37.5284 356.389 36.9659 354.56 35.8409C352.73 34.7159 351.31 33.142 350.298 31.1193C349.287 29.0966 348.781 26.733 348.781 24.0284C348.781 21.3125 349.287 18.9375 350.298 16.9034C351.31 14.8693 352.73 13.2898 354.56 12.1648C356.389 11.0398 358.531 10.4773 360.986 10.4773C363.44 10.4773 365.582 11.0398 367.412 12.1648C369.241 13.2898 370.662 14.8693 371.673 16.9034C372.685 18.9375 373.19 21.3125 373.19 24.0284C373.19 26.733 372.685 29.0966 371.673 31.1193C370.662 33.142 369.241 34.7159 367.412 35.8409C365.582 36.9659 363.44 37.5284 360.986 37.5284ZM361.003 33.25C362.594 33.25 363.912 32.8295 364.957 31.9886C366.003 31.1477 366.776 30.0284 367.276 28.6307C367.787 27.2329 368.043 25.6932 368.043 24.0114C368.043 22.3409 367.787 20.8068 367.276 19.4091C366.776 18 366.003 16.8693 364.957 16.017C363.912 15.1648 362.594 14.7386 361.003 14.7386C359.401 14.7386 358.071 15.1648 357.014 16.017C355.969 16.8693 355.19 18 354.679 19.4091C354.179 20.8068 353.929 22.3409 353.929 24.0114C353.929 25.6932 354.179 27.2329 354.679 28.6307C355.19 30.0284 355.969 31.1477 357.014 31.9886C358.071 32.8295 359.401 33.25 361.003 33.25Z" fill="white"/>
<path d="M378.879 37V10.8182H383.805V14.9773H384.078C384.555 13.5682 385.396 12.4602 386.601 11.6534C387.817 10.8352 389.192 10.4261 390.726 10.4261C391.044 10.4261 391.419 10.4375 391.851 10.4602C392.294 10.4829 392.641 10.5114 392.891 10.5454V15.4204C392.686 15.3636 392.322 15.3011 391.8 15.2329C391.277 15.1534 390.754 15.1136 390.232 15.1136C389.027 15.1136 387.953 15.3693 387.01 15.8807C386.078 16.3807 385.339 17.0795 384.794 17.9773C384.249 18.8636 383.976 19.875 383.976 21.0114V37H378.879Z" fill="white"/>
<path d="M401.989 28.1193L401.954 21.8977H402.841L413.273 10.8182H419.375L407.477 23.4318H406.676L401.989 28.1193ZM397.301 37V2.0909H402.398V37H397.301ZM413.835 37L404.46 24.5568L407.972 20.9943L420.091 37H413.835Z" fill="white"/>
</svg>
